<?xml version="1.0" encoding="utf-8"?>
<!-- Generator: Adobe Illustrator 19.0.0, SVG Export Plug-In . SVG Version: 6.00 Build 0)  -->
<!DOCTYPE svg PUBLIC "-//W3C//DTD SVG 1.0//EN" "http://www.w3.org/TR/2001/REC-SVG-20010904/DTD/svg10.dtd">
<svg version="1.0" id="Camada_1" xmlns="http://www.w3.org/2000/svg" xmlns:xlink="http://www.w3.org/1999/xlink" x="0px" y="0px"
	 viewBox="0 0 20 20" enable-background="new 0 0 20 20" xml:space="preserve">
<g id="XMLID_19_">
	<path id="XMLID_22_" fill="#1A1A1A" d="M10,20C4.5,20,0,15.5,0,10C0,4.5,4.5,0,10,0s10,4.5,10,10C20,15.5,15.5,20,10,20 M10,0.6
		c-5.2,0-9.4,4.2-9.4,9.4c0,5.2,4.2,9.4,9.4,9.4s9.4-4.2,9.4-9.4C19.4,4.8,15.2,0.6,10,0.6"/>
	<path id="XMLID_15_" fill="#1A1A1A" d="M10.9,6.3c0,0.5-0.4,0.9-0.9,0.9c-0.5,0-0.9-0.4-0.9-0.9c0-0.5,0.4-0.9,0.9-0.9
		C10.5,5.4,10.9,5.8,10.9,6.3"/>
	<path id="XMLID_14_" fill="#1A1A1A" d="M14.3,9.9c0,0,1.8-0.2,2.9-1c0,0-1.3,1.7-3.9,2.7c0,0,0.4,0.4,2.1,0.2c0,0-2.7,2.1-4.9,0.4
		v4.7L10,18.1l-0.7-1.2v-4.7c-3,1.2-4.8-0.4-4.8-0.4c1.7,0.1,2-0.2,2-0.2C4.1,10.7,2.8,9,2.8,9c1.2,0.8,2.9,1,2.9,1
		C2.9,7.6,2.6,5,2.6,5c2.6,3.1,5.8,3.4,6.8,3.5V7.6h1.3v0.9c1.3-0.2,3.8-0.2,6.9-3.6C17.5,4.8,17.1,7.6,14.3,9.9"/>
</g>
</svg>
