<?xml version="1.0" encoding="utf-8"?>
<!-- Generator: Adobe Illustrator 19.0.0, SVG Export Plug-In . SVG Version: 6.00 Build 0)  -->
<svg version="1.1" id="Camada_1" xmlns="http://www.w3.org/2000/svg" xmlns:xlink="http://www.w3.org/1999/xlink" x="0px" y="0px"
	 viewBox="-91 92.3 36.7 36.7" style="enable-background:new -91 92.3 36.7 36.7;" xml:space="preserve">
<style type="text/css">
	.st0{fill:#3C3C3B;}
	.st1{fill:#575756;}
</style>
<polygon points="-54.3,100.8 -79.3,125.8 -83.3,121.7 -61.2,99.6 -65.7,95.1 -62.8,92.3 "/>
<rect x="-90.1" y="105.3" transform="matrix(0.7071 -0.7071 0.7071 0.7071 -98.5026 -20.9338)" class="st0" width="31.2" height="6.3"/>
<polygon class="st1" points="-79.2,125.8 -86,127.6 -89.7,123.9 -87.9,117.2 "/>
<polygon points="-86,127.6 -91,129 -89.7,123.9 "/>
<rect x="-77.4" y="93.4" transform="matrix(0.7071 -0.7071 0.7071 0.7071 -99.4169 -17.9149)" width="12" height="35.3"/>
<rect x="-76.8" y="94.4" transform="matrix(0.7071 -0.7071 0.7071 0.7071 -99.4169 -17.9149)" class="st0" width="10.9" height="33.3"/>
<path d="M-78.3,97.4l-2.4,2.4c-0.1,0.1-0.3,0.1-0.4,0l0,0c-0.1-0.1-0.1-0.3,0-0.4l2.4-2.4c0.1-0.1,0.3-0.1,0.4,0l0,0
	C-78.2,97.2-78.2,97.3-78.3,97.4z"/>
<path d="M-77.1,98.7l-2.4,2.4c-0.1,0.1-0.3,0.1-0.4,0l0,0c-0.1-0.1-0.1-0.3,0-0.4l2.4-2.4c0.1-0.1,0.3-0.1,0.4,0l0,0
	C-77,98.4-77,98.6-77.1,98.7z"/>
<path d="M-75.9,99.9l-2.4,2.4c-0.1,0.1-0.3,0.1-0.4,0l0,0c-0.1-0.1-0.1-0.3,0-0.4l2.4-2.4c0.1-0.1,0.3-0.1,0.4,0l0,0
	C-75.8,99.6-75.8,99.8-75.9,99.9z"/>
<path d="M-74.6,101.1l-2.4,2.4c-0.1,0.1-0.3,0.1-0.4,0l0,0c-0.1-0.1-0.1-0.3,0-0.4l2.4-2.4c0.1-0.1,0.3-0.1,0.4,0l0,0
	C-74.5,100.9-74.5,101-74.6,101.1z"/>
<path d="M-73.4,102.4l-2.4,2.4c-0.1,0.1-0.3,0.1-0.4,0l0,0c-0.1-0.1-0.1-0.3,0-0.4l2.4-2.4c0.1-0.1,0.3-0.1,0.4,0l0,0
	C-73.3,102.1-73.3,102.3-73.4,102.4z"/>
<path d="M-72.2,103.6l-2.4,2.4c-0.1,0.1-0.3,0.1-0.4,0l0,0c-0.1-0.1-0.1-0.3,0-0.4l2.4-2.4c0.1-0.1,0.3-0.1,0.4,0l0,0
	C-72.1,103.3-72.1,103.5-72.2,103.6z"/>
<path d="M-70.9,104.8l-2.4,2.4c-0.1,0.1-0.3,0.1-0.4,0l0,0c-0.1-0.1-0.1-0.3,0-0.4l2.4-2.4c0.1-0.1,0.3-0.1,0.4,0l0,0
	C-70.8,104.6-70.8,104.7-70.9,104.8z"/>
<path d="M-69.7,106.1l-2.4,2.4c-0.1,0.1-0.3,0.1-0.4,0l0,0c-0.1-0.1-0.1-0.3,0-0.4l2.4-2.4c0.1-0.1,0.3-0.1,0.4,0l0,0
	C-69.6,105.8-69.6,106-69.7,106.1z"/>
<path d="M-68.5,107.3l-2.4,2.4c-0.1,0.1-0.3,0.1-0.4,0l0,0c-0.1-0.1-0.1-0.3,0-0.4l2.4-2.4c0.1-0.1,0.3-0.1,0.4,0l0,0
	C-68.4,107-68.4,107.2-68.5,107.3z"/>
<path d="M-67.2,108.5l-2.4,2.4c-0.1,0.1-0.3,0.1-0.4,0l0,0c-0.1-0.1-0.1-0.3,0-0.4l2.4-2.4c0.1-0.1,0.3-0.1,0.4,0l0,0
	C-67.1,108.3-67.1,108.4-67.2,108.5z"/>
<path d="M-66,109.8l-2.4,2.4c-0.1,0.1-0.3,0.1-0.4,0l0,0c-0.1-0.1-0.1-0.3,0-0.4l2.4-2.4c0.1-0.1,0.3-0.1,0.4,0l0,0
	C-65.9,109.5-65.9,109.7-66,109.8z"/>
<path d="M-64.8,111l-2.4,2.4c-0.1,0.1-0.3,0.1-0.4,0l0,0c-0.1-0.1-0.1-0.3,0-0.4l2.4-2.4c0.1-0.1,0.3-0.1,0.4,0l0,0
	C-64.7,110.7-64.7,110.9-64.8,111z"/>
<path d="M-63.5,112.2l-2.4,2.4c-0.1,0.1-0.3,0.1-0.4,0l0,0c-0.1-0.1-0.1-0.3,0-0.4l2.4-2.4c0.1-0.1,0.3-0.1,0.4,0l0,0
	C-63.4,112-63.4,112.1-63.5,112.2z"/>
<path d="M-62.3,113.5l-2.4,2.4c-0.1,0.1-0.3,0.1-0.4,0l0,0c-0.1-0.1-0.1-0.3,0-0.4l2.4-2.4c0.1-0.1,0.3-0.1,0.4,0l0,0
	C-62.2,113.2-62.2,113.4-62.3,113.5z"/>
<path d="M-61.1,114.7l-2.4,2.4c-0.1,0.1-0.3,0.1-0.4,0l0,0c-0.1-0.1-0.1-0.3,0-0.4l2.4-2.4c0.1-0.1,0.3-0.1,0.4,0l0,0
	C-61,114.4-61,114.6-61.1,114.7z"/>
<path d="M-59.8,115.9l-2.4,2.4c-0.1,0.1-0.3,0.1-0.4,0l0,0c-0.1-0.1-0.1-0.3,0-0.4l2.4-2.4c0.1-0.1,0.3-0.1,0.4,0l0,0
	C-59.7,115.7-59.7,115.8-59.8,115.9z"/>
<path d="M-58.6,117.2l-2.4,2.4c-0.1,0.1-0.3,0.1-0.4,0l0,0c-0.1-0.1-0.1-0.3,0-0.4l2.4-2.4c0.1-0.1,0.3-0.1,0.4,0l0,0
	C-58.5,116.9-58.5,117.1-58.6,117.2z"/>
<path d="M-57.4,118.4l-2.4,2.4c-0.1,0.1-0.3,0.1-0.4,0l0,0c-0.1-0.1-0.1-0.3,0-0.4l2.4-2.4c0.1-0.1,0.3-0.1,0.4,0l0,0
	C-57.3,118.1-57.3,118.3-57.4,118.4z"/>
</svg>
